<?xml version="1.0" standalone="no"?>
<!DOCTYPE svg PUBLIC "-//W3C//DTD SVG 20010904//EN"
 "http://www.w3.org/TR/2001/REC-SVG-20010904/DTD/svg10.dtd">
<svg version="1.0" xmlns="http://www.w3.org/2000/svg"
 width="387.000000pt" height="679.000000pt" viewBox="0 0 387.000000 679.000000"
 preserveAspectRatio="xMidYMid meet">
<metadata>
Created by potrace 1.15, written by Peter Selinger 2001-2017
</metadata>
<g transform="translate(0.000000,679.000000) scale(0.100000,-0.100000)"
fill="#000000" stroke="none">
<path d="M2240 6783 c0 -5 12 -19 25 -32 17 -15 25 -34 25 -56 0 -42 9 -48 78
-50 l54 -3 -6 37 c-3 20 -6 49 -6 65 0 16 -3 27 -6 23 -4 -3 -22 0 -41 8 -37
16 -123 21 -123 8z"/>
<path d="M2567 6702 c-15 -15 -27 -33 -27 -40 0 -7 -11 -12 -24 -12 -13 0 -39
-11 -59 -24 -32 -22 -47 -24 -159 -27 -174 -3 -165 1 -164 -67 0 -31 -4 -64
-9 -72 -5 -8 -8 -28 -7 -45 2 -25 -3 -32 -32 -46 -19 -9 -41 -12 -52 -8 -11 4
-35 8 -54 8 -60 2 -77 10 -77 37 0 17 4 24 13 20 8 -3 14 -1 14 4 0 6 -11 10
-24 10 -13 0 -27 6 -29 13 -3 6 -6 2 -6 -10 -1 -12 -6 -25 -12 -28 -6 -5 -4
-11 7 -19 20 -15 29 -73 13 -92 -6 -8 -9 -21 -5 -29 4 -12 0 -14 -19 -11 -17
3 -25 0 -25 -10 0 -8 -4 -14 -8 -14 -13 0 -32 23 -32 38 0 20 52 63 68 57 6
-2 12 -1 12 4 0 20 -41 17 -71 -5 -18 -13 -29 -24 -25 -24 5 0 3 -6 -3 -14 -7
-8 -21 -12 -31 -9 -11 3 -20 0 -20 -6 0 -5 -7 -8 -15 -4 -9 3 -23 -1 -33 -9
-9 -8 -26 -18 -37 -22 -13 -5 -16 -9 -8 -14 24 -15 -2 -32 -34 -23 -17 5 -34
7 -37 3 -3 -3 -6 0 -6 6 0 18 -65 25 -105 11 -33 -12 -38 -12 -50 4 -10 14
-21 17 -48 12 -21 -4 -37 -3 -42 4 -8 15 -76 43 -84 35 -3 -3 3 -10 13 -16 15
-8 16 -12 5 -19 -11 -7 -11 -9 2 -9 12 0 16 -8 15 -25 -1 -18 -5 -23 -17 -20
-9 3 -29 1 -44 -5 -19 -7 -31 -7 -41 0 -9 8 -19 8 -35 -1 -13 -6 -55 -12 -95
-13 -40 -1 -79 -8 -87 -14 -15 -13 -47 -6 -59 12 -8 12 -101 14 -177 4 -41 -5
-71 -18 -120 -52 -36 -24 -79 -50 -96 -56 -105 -38 -144 -63 -193 -125 -55
-69 -102 -138 -102 -149 0 -4 -16 -32 -35 -62 -19 -30 -35 -59 -35 -64 0 -5
-20 -24 -43 -42 -63 -47 -79 -71 -68 -100 6 -13 10 -17 10 -10 1 6 6 12 11 12
13 0 2 -47 -16 -75 -12 -16 -14 -138 -13 -660 0 -375 4 -661 10 -690 5 -27 10
-60 10 -72 -1 -12 8 -27 18 -33 12 -6 22 -26 26 -50 4 -22 11 -38 16 -34 5 3
9 -1 9 -9 0 -8 16 -22 35 -33 19 -10 35 -22 35 -27 0 -5 18 -26 40 -48 22 -22
40 -35 40 -30 0 5 3 17 6 25 4 12 2 15 -9 10 -13 -5 -14 0 -5 33 5 21 11 47
12 59 3 28 32 68 45 60 5 -4 15 3 21 14 17 32 30 23 30 -19 0 -34 -5 -44 -34
-66 -19 -14 -37 -32 -39 -40 -9 -21 15 -85 35 -96 15 -8 18 -6 18 20 0 16 5
42 11 58 10 27 11 28 25 8 8 -11 23 -19 33 -17 12 2 24 -10 37 -35 10 -21 24
-45 31 -53 6 -8 16 -31 21 -50 8 -31 10 -33 18 -15 15 38 34 48 87 46 67 -2
94 -21 107 -73 5 -24 17 -63 26 -88 10 -25 17 -55 17 -67 -1 -13 3 -21 7 -18
12 7 20 -34 13 -67 -6 -28 -5 -29 15 -17 12 8 22 27 25 48 5 41 -1 63 -14 55
-5 -3 -9 9 -9 26 0 17 -6 33 -14 36 -19 7 -32 94 -15 105 10 6 10 10 0 23 -7
8 -10 19 -7 24 3 5 8 35 11 68 7 75 33 155 55 171 10 7 21 25 24 40 4 16 19
53 33 83 36 77 50 109 63 151 10 33 50 84 50 64 0 -4 7 -2 15 5 18 15 167 49
214 50 64 0 243 107 249 148 2 13 11 22 21 22 20 0 46 52 56 112 6 38 32 58
47 36 4 -7 8 -16 8 -20 0 -5 4 -8 8 -8 5 0 9 14 10 31 0 18 6 37 12 43 9 8 10
3 5 -19 l-7 -30 17 23 c9 13 14 30 10 42 -5 17 -3 19 22 15 31 -6 43 0 59 30
6 11 23 26 39 34 21 10 24 15 14 22 -11 8 -10 12 5 24 25 19 40 19 32 0 -8
-22 11 -19 23 4 7 12 18 17 33 14 16 -3 31 4 47 21 32 34 67 33 111 -5 l35
-30 6 23 c3 13 1 29 -4 36 -7 9 -4 12 12 12 16 0 21 -6 21 -25 0 -16 6 -25 16
-25 8 0 13 4 10 9 -5 7 14 21 28 21 1 0 3 -23 4 -50 2 -39 -4 -59 -23 -90 -29
-46 -30 -50 -11 -50 17 0 49 47 41 60 -3 6 -2 10 3 10 10 0 39 86 44 130 4 30
38 34 82 8 28 -16 30 -16 44 0 13 16 13 16 8 -1 -3 -11 0 -20 9 -23 8 -4 15
-15 15 -26 0 -10 5 -16 10 -13 6 4 8 10 5 15 -3 5 -1 11 5 15 5 3 10 -1 10 -9
0 -9 4 -16 8 -16 5 0 14 -12 21 -26 9 -20 14 -24 25 -15 21 18 43 -13 25 -36
-12 -15 -12 -16 4 -10 35 13 47 -2 47 -63 0 -33 5 -62 10 -65 16 -10 60 -82
60 -98 0 -19 29 -77 50 -102 31 -36 33 -70 5 -103 -14 -16 -37 -33 -52 -37
-15 -3 -64 -31 -109 -60 -58 -39 -85 -63 -92 -84 -8 -23 -18 -31 -46 -37 -48
-9 -71 -55 -71 -144 0 -71 27 -140 68 -172 21 -16 22 -15 39 20 9 20 12 39 7
40 -18 7 -9 29 22 51 23 18 39 21 64 17 26 -5 34 -3 39 11 3 10 13 29 21 43 9
16 12 37 9 57 -7 39 8 49 49 34 25 -10 27 -15 25 -62 -2 -42 -7 -54 -28 -69
-14 -10 -39 -20 -55 -22 -15 -1 -30 -9 -33 -16 -9 -27 176 6 206 36 14 14 17
38 18 119 1 113 -4 122 -54 97 -16 -7 -58 -17 -93 -20 l-64 -6 33 25 c19 14
59 35 90 48 31 12 64 28 73 36 14 12 17 12 22 -2 11 -26 26 -16 38 25 10 32 9
43 -1 55 -12 14 -11 18 1 26 8 5 18 9 24 9 5 0 4 5 -3 12 -18 18 -14 37 7 33
14 -2 21 4 25 21 4 13 12 24 20 24 14 0 31 -50 28 -82 -2 -26 17 -70 27 -63 6
3 7 28 4 55 -4 34 -2 50 6 50 15 0 14 30 -1 30 -7 0 -1 8 13 17 25 15 57 79
45 90 -3 4 -6 1 -6 -5 0 -7 -7 -12 -16 -12 -12 0 -15 7 -12 25 3 14 2 28 -3
30 -12 8 -15 162 -4 174 3 3 15 -5 27 -17 15 -15 22 -34 23 -62 0 -22 3 -40 8
-40 4 0 7 13 7 28 0 17 11 41 29 61 28 31 28 31 23 6 -2 -14 1 -31 7 -39 8
-10 8 -21 1 -40 -5 -15 -10 -45 -10 -67 0 -21 -5 -39 -11 -39 -15 0 -7 -43 10
-48 10 -3 13 2 9 22 -3 14 1 34 8 43 7 10 14 32 14 50 0 17 5 44 12 60 13 32
18 153 6 153 -4 0 -8 -7 -8 -15 0 -8 -4 -15 -9 -15 -5 0 0 29 12 64 16 47 24
60 30 49 5 -8 7 -30 5 -49 -2 -19 -1 -34 3 -34 15 0 19 56 9 109 -12 66 -12
70 0 51 8 -11 10 -7 8 18 -2 32 -18 47 -18 16 0 -26 -18 -6 -25 29 -4 17 -11
34 -15 37 -13 9 -21 78 -10 85 14 9 13 36 -2 32 -7 -1 -14 7 -16 19 -2 13 6
25 23 34 43 23 66 83 71 183 4 81 2 87 -16 87 -12 0 -17 -5 -14 -13 2 -7 -2
-21 -9 -31 -13 -18 -15 -16 -32 30 -10 27 -22 54 -27 60 -4 6 -6 13 -3 16 3 2
-6 11 -20 18 -14 7 -25 19 -25 26 0 6 -11 19 -25 28 -24 16 -35 56 -15 56 15
0 1 26 -34 64 -22 25 -35 32 -46 26 -21 -12 -74 35 -67 60 6 24 -12 111 -27
130 -21 27 -36 70 -36 106 0 43 -19 68 -38 48 -13 -14 -14 -29 -9 -116 4 -56
-6 -77 -18 -39 -3 10 -15 21 -25 24 -24 6 -28 55 -5 63 8 4 15 13 15 21 0 9
-6 13 -14 10 -8 -3 -17 1 -20 10 -8 19 -5 22 22 28 51 10 79 39 47 51 -8 4
-15 12 -15 20 0 8 -11 14 -27 15 l-28 1 31 13 31 14 -2 102 c-2 83 -6 104 -19
111 -41 23 -41 94 0 104 13 3 24 10 24 15 0 17 -90 139 -103 139 -2 0 -15 -13
-30 -28z m-208 -152 c27 -19 28 -22 41 -185 13 -175 7 -236 -27 -249 -11 -4
-13 -1 -8 14 8 26 -2 25 -26 -2 -10 -13 -18 -18 -19 -11 0 7 10 22 23 34 15
15 18 23 10 26 -7 3 -13 11 -13 18 0 7 -6 15 -12 18 -10 3 -10 9 0 26 21 36
13 37 -17 2 -24 -28 -32 -32 -44 -23 -12 10 -16 9 -21 -5 -17 -43 -47 56 -61
202 -2 17 -6 49 -10 71 -7 37 -5 44 17 58 14 9 43 15 71 14 26 0 51 2 54 6 9
9 12 8 42 -14z"/>
<path d="M3569 5030 c-1 -14 -2 -31 -2 -38 1 -7 4 -88 7 -180 4 -92 9 -207 11
-257 12 -257 16 -329 21 -429 3 -60 7 -114 10 -118 3 -5 0 -47 -7 -94 -7 -50
-16 -80 -20 -72 -6 10 -11 10 -20 1 -8 -8 -9 -20 -1 -42 10 -29 0 -54 -12 -29
-5 10 -7 10 -12 1 -3 -7 -12 -9 -20 -6 -7 3 -11 9 -8 14 3 5 2 15 -3 22 -4 6
-9 23 -10 37 -2 14 -10 74 -18 135 -8 60 -15 139 -15 175 0 36 -7 124 -16 195
-19 158 -22 190 -23 236 -1 27 -6 38 -20 42 -18 4 -19 13 -17 96 3 83 1 91
-16 91 -10 0 -18 5 -18 12 0 27 -10 -2 -18 -55 -5 -31 -5 -57 0 -57 14 0 9
-37 -7 -50 -8 -7 -15 -23 -15 -36 0 -21 -33 -53 -70 -67 -10 -3 -6 -6 10 -7
16 -1 20 -4 10 -7 -25 -10 -40 -36 -28 -50 7 -9 7 -13 0 -13 -13 0 -6 -64 11
-98 9 -19 8 -26 -3 -33 -46 -27 -45 -25 -31 -77 7 -27 13 -64 13 -81 1 -18 4
-34 8 -36 6 -4 10 -73 12 -200 1 -72 0 -75 -19 -73 -47 4 -53 -1 -53 -43 0
-22 -5 -50 -12 -62 -6 -12 -11 -60 -10 -111 1 -71 -2 -94 -15 -108 -10 -12
-18 -42 -21 -79 -4 -60 -5 -60 -31 -52 -33 10 -293 11 -306 0 -5 -4 -20 -15
-32 -25 -12 -10 -39 -24 -60 -31 -36 -12 -42 -11 -75 11 -19 12 -42 35 -51 51
-9 15 -23 27 -32 27 -18 0 -19 -10 -4 -42 8 -19 4 -39 -24 -108 -30 -75 -32
-87 -20 -110 19 -37 17 -99 -4 -107 -10 -4 -20 -9 -23 -12 -23 -27 -124 -79
-164 -85 -27 -4 -80 -16 -120 -27 -39 -10 -86 -19 -104 -19 -53 0 -33 -23 30
-36 30 -6 70 -19 88 -28 18 -9 39 -16 47 -16 20 0 15 -18 -7 -25 -38 -12 -79
-14 -85 -4 -8 12 -45 12 -45 -1 0 -5 6 -10 13 -10 6 0 23 -6 37 -13 54 -28
110 -39 165 -35 31 3 58 1 61 -3 3 -5 26 -6 51 -3 l46 5 -7 -48 c-3 -26 -12
-61 -20 -78 -8 -16 -22 -46 -31 -65 -8 -19 -26 -51 -39 -71 l-24 -36 22 -39
c25 -45 83 -69 124 -51 30 14 39 4 57 -69 8 -32 19 -69 25 -81 l10 -23 32 20
c18 11 36 20 40 20 15 0 75 -66 71 -77 -3 -7 2 -13 11 -13 9 0 16 -7 16 -15 0
-8 -9 -15 -20 -15 -11 0 -20 4 -20 9 0 22 -49 62 -72 59 -21 -3 -23 -8 -23
-68 0 -55 3 -65 16 -62 23 3 32 -25 12 -37 -14 -7 -14 -14 -6 -37 6 -16 14
-49 18 -73 3 -24 9 -49 13 -55 4 -6 8 -36 9 -66 1 -30 9 -75 17 -99 9 -24 16
-66 16 -93 0 -50 0 -50 -27 -43 -15 3 -30 10 -33 13 -3 4 -23 20 -45 36 -22
17 -73 62 -113 102 -40 40 -85 81 -101 91 -85 54 -113 76 -118 91 -3 9 -17 41
-29 70 -13 29 -24 56 -24 60 0 4 -8 15 -19 24 -10 8 -21 22 -23 29 -6 17 -68
15 -101 -2 -110 -61 -148 -69 -313 -72 -20 0 -30 -5 -28 -12 3 -7 -3 -18 -12
-26 -14 -12 -19 -10 -34 9 -18 22 -40 29 -40 13 0 -5 7 -14 15 -21 21 -18 20
-60 -2 -60 -40 1 -83 61 -62 86 6 8 9 17 5 21 -3 3 -6 1 -6 -5 0 -6 -7 -9 -17
-5 -14 5 -15 1 -10 -27 4 -18 14 -47 22 -63 18 -37 13 -44 -21 -29 -15 7 -22
17 -18 24 5 7 2 9 -8 6 -11 -5 -15 1 -16 24 -1 52 -12 44 -12 -9 0 -41 -4 -53
-27 -72 -19 -18 -24 -19 -20 -7 12 31 -13 5 -26 -27 -13 -30 -14 -31 -19 -9
-3 12 -2 22 3 22 5 0 9 9 9 20 0 36 -18 21 -25 -20 -4 -22 -11 -38 -16 -34 -5
3 -7 10 -4 15 4 5 1 9 -6 9 -8 0 -8 4 1 15 10 12 10 15 -1 15 -10 1 -9 4 4 14
21 16 22 26 2 26 -12 0 -14 7 -9 26 5 19 3 25 -4 20 -7 -4 -22 -2 -34 5 -22
12 -22 12 12 40 23 20 29 30 19 33 -17 5 -69 18 -89 22 -8 1 -25 6 -37 9 -17
5 -23 3 -23 -8 0 -8 6 -17 13 -20 7 -2 23 -25 35 -51 13 -25 35 -59 48 -75
l25 -30 -23 -3 c-13 -2 -27 -13 -33 -25 -5 -13 -15 -25 -22 -27 -20 -8 -80 59
-88 96 -4 18 -13 53 -21 77 -12 35 -12 46 -2 52 21 13 -28 56 -70 62 -54 7
-263 92 -315 127 -80 54 -125 128 -114 187 3 18 -5 37 -30 70 -19 24 -41 60
-50 79 -9 19 -20 34 -24 34 -5 0 -21 -17 -36 -37 -45 -59 -93 -106 -101 -98
-4 3 4 16 17 26 25 21 91 116 91 132 0 5 6 4 13 -2 8 -6 16 -8 19 -5 7 7 -14
77 -25 85 -5 4 -1 12 9 18 11 6 13 11 7 11 -7 0 -13 5 -13 11 0 5 4 8 9 4 5
-3 13 0 17 6 3 6 2 14 -4 18 -15 9 -1 28 23 32 13 3 20 13 21 29 1 15 16 37
38 56 38 33 88 51 84 30 -1 -6 4 -26 12 -43 11 -24 22 -33 38 -33 16 0 26 -7
29 -21 4 -15 12 -19 32 -17 28 3 44 38 17 38 -9 0 -16 5 -16 10 0 6 -6 10 -12
8 -14 -3 -91 52 -84 59 2 3 39 -17 81 -45 51 -32 73 -52 65 -57 -9 -6 -9 -9 1
-15 10 -7 10 -12 1 -23 -10 -12 -9 -16 4 -21 22 -9 23 -8 17 13 -4 16 -1 19
16 14 24 -6 72 -65 87 -108 6 -16 15 -30 20 -30 14 0 11 125 -3 137 -7 6 -13
16 -13 22 0 6 -17 32 -38 58 -85 106 -130 166 -162 218 -19 30 -35 57 -36 59
-2 2 -17 -3 -33 -10 -34 -15 -48 -37 -23 -35 11 1 16 -5 14 -16 -1 -9 1 -19 6
-22 13 -8 2 -57 -13 -62 -7 -3 -11 -14 -8 -25 3 -10 1 -19 -5 -19 -5 0 -12 10
-16 23 -5 17 -8 19 -15 8 -7 -11 -13 -10 -32 8 -13 12 -29 19 -36 17 -7 -3
-13 -1 -13 4 0 5 -13 23 -30 41 -16 18 -27 35 -25 39 8 14 -17 86 -39 110 -31
34 -63 89 -80 136 -8 21 -28 71 -46 109 l-32 70 -15 -29 c-11 -22 -15 -58 -14
-145 1 -64 6 -120 11 -125 13 -13 13 -73 0 -81 -6 -4 -8 -10 -5 -15 3 -4 -11
-18 -30 -30 -26 -16 -34 -27 -30 -40 8 -27 -12 -69 -39 -81 -25 -12 -81 -122
-71 -139 3 -5 1 -11 -5 -15 -15 -9 -12 -25 4 -19 11 4 13 0 9 -15 -3 -12 -1
-21 6 -21 11 0 4 -61 -9 -70 -4 -3 -10 -23 -13 -45 -3 -22 -11 -67 -17 -100
-14 -70 -7 -172 15 -233 25 -69 65 -145 93 -175 25 -26 25 -28 7 -41 -10 -7
-25 -28 -34 -47 -10 -21 -23 -33 -33 -31 -16 2 -88 -70 -88 -88 0 -6 -7 -10
-17 -10 -9 0 -33 -18 -54 -40 l-39 -40 0 -620 c0 -387 4 -620 10 -620 5 0 21
5 35 12 22 10 28 8 44 -9 35 -37 39 -123 5 -123 -17 0 -18 12 -3 27 6 6 8 16
4 23 -10 16 -38 -9 -30 -28 6 -17 -13 -44 -26 -36 -5 3 -9 15 -9 28 0 12 -7
31 -15 42 -13 17 -15 -5 -13 -209 3 -219 4 -229 24 -245 23 -18 41 -72 25 -72
-5 0 -18 11 -29 25 l-20 25 0 -35 0 -35 964 0 c530 0 964 2 964 6 0 3 -4 13
-9 22 -5 9 -6 35 -2 57 6 36 9 40 39 41 23 1 37 -5 50 -21 14 -18 21 -20 35
-11 14 9 20 7 28 -6 5 -10 16 -15 24 -12 12 5 15 -2 15 -30 0 -29 -4 -36 -19
-36 -10 0 -24 7 -31 15 -18 21 -40 19 -40 -5 0 -19 7 -20 104 -20 92 0 104 2
102 17 0 10 7 19 18 21 12 3 16 0 11 -8 -5 -9 -1 -10 14 -5 15 4 29 1 40 -10
15 -12 35 -15 96 -13 51 2 80 7 83 15 2 9 -5 11 -29 6 -28 -5 -31 -4 -26 11 4
10 7 19 7 22 0 15 99 44 165 49 11 0 38 9 59 18 22 10 43 14 48 9 11 -11 -9
-75 -33 -106 l-20 -26 41 0 c41 0 41 1 40 33 -3 49 -1 57 13 53 6 -3 24 -7 40
-10 18 -4 27 -13 27 -26 0 -11 4 -20 10 -20 5 0 7 -7 4 -15 -5 -11 1 -15 20
-15 33 0 33 17 1 54 -14 16 -25 36 -25 45 -1 21 -30 56 -55 66 -16 7 -17 9 -4
12 15 4 30 41 44 105 3 15 14 30 25 33 31 10 24 32 -14 46 l-34 12 16 34 c16
35 32 43 32 18 0 -8 9 -15 20 -15 12 0 20 -7 20 -17 0 -14 2 -14 20 2 20 18
21 18 40 -3 33 -35 25 -56 -40 -103 -33 -24 -56 -45 -50 -47 18 -6 11 -44 -10
-49 -11 -3 -20 -10 -20 -15 0 -16 58 -91 85 -112 23 -17 37 -65 16 -51 -5 3
-12 1 -16 -5 -4 -7 127 -10 399 -10 l405 0 3 43 c4 41 4 41 12 12 4 -16 9 -36
12 -43 2 -8 25 -12 69 -12 l65 0 0 721 c0 637 -2 720 -15 715 -20 -7 -19 14 1
42 8 12 13 34 11 50 -4 26 -4 26 -12 5 -8 -26 -23 -29 -50 -10 -22 17 -12 37
18 37 36 0 47 41 47 171 0 98 -3 118 -16 123 -13 5 -15 14 -10 44 l7 37 -19
-24 c-16 -20 -20 -21 -25 -7 -9 24 0 40 33 60 l30 17 0 355 0 354 -40 0 c-31
0 -40 4 -41 18 0 10 -3 12 -6 5 -5 -15 -39 -17 -47 -4 -3 4 -17 6 -31 3 -15
-2 -25 0 -25 7 0 6 17 11 38 11 34 1 36 2 18 15 -11 8 -29 12 -41 9 -16 -4
-26 1 -38 20 -22 32 -23 70 -2 63 8 -4 17 -1 21 4 3 6 12 2 21 -11 9 -13 21
-19 30 -16 14 6 63 -38 63 -56 0 -3 9 -4 19 -1 10 3 28 0 40 -6 l21 -12 0 386
c0 250 -4 385 -10 385 -6 0 -10 33 -11 78 0 123 -26 369 -47 463 -19 81 -46
134 -64 123 -11 -7 -48 14 -48 28 0 7 5 6 15 -2 13 -11 15 -7 15 29 0 46 -6
52 -20 19 -8 -18 -10 -8 -9 42 2 86 1 92 -11 85 -5 -3 -10 -2 -10 4 0 5 4 12
9 15 5 4 8 40 8 81 -2 70 -4 76 -25 82 -22 5 -26 30 -3 25 6 -1 11 9 11 23 0
19 -4 23 -17 18 -11 -4 -14 -3 -9 5 4 7 1 15 -8 18 -9 3 -14 10 -11 14 3 5 -2
13 -11 18 -15 8 -16 25 -11 141 3 78 2 131 -4 131 -5 0 -9 12 -10 28 -1 15 -5
38 -9 52 l-8 25 -3 -25z m-1849 -3206 c19 -19 1 -39 -58 -65 -50 -23 -64 -26
-114 -19 -31 5 -62 11 -68 15 -23 14 -69 11 -75 -4 -5 -13 -9 -11 -20 9 -29
52 -13 63 51 33 36 -18 36 -18 58 9 13 17 34 28 56 31 56 8 159 2 170 -9z
m2014 -29 c31 -48 11 -92 -39 -83 -19 4 -25 1 -25 -13 0 -18 10 -23 38 -20 14
2 16 -27 3 -48 -10 -16 -45 -1 -54 24 -5 11 -12 13 -32 5 -20 -8 -25 -6 -25 6
0 11 -6 15 -20 11 -31 -8 -25 28 9 52 31 22 66 27 76 11 9 -15 25 -12 25 4 0
8 -7 16 -15 20 -22 8 -18 31 8 44 31 15 33 15 51 -13z m-607 -687 c19 -15 16
-28 -4 -22 -13 4 -15 3 -5 -4 7 -5 17 -26 22 -46 7 -31 5 -39 -11 -49 -23 -14
-25 -37 -4 -37 8 0 24 15 35 33 17 27 20 29 20 11 0 -12 -11 -33 -25 -48 -20
-21 -33 -27 -60 -25 -19 2 -37 0 -41 -4 -4 -4 -13 1 -20 11 -12 16 -13 16 -14
-4 0 -30 -11 -36 -26 -16 -10 14 -10 20 2 33 11 12 11 23 3 54 -15 55 2 110
39 124 29 11 69 6 89 -11z m-887 -248 c25 -7 55 -21 68 -33 l22 -21 -27 -28
c-15 -15 -35 -28 -45 -28 -10 0 -18 -4 -18 -10 0 -16 -27 -12 -46 7 -16 17
-16 18 7 23 13 4 27 3 30 -2 8 -13 39 2 39 18 0 8 -1 14 -3 14 -2 0 -29 5 -61
11 -44 8 -61 7 -72 -2 -10 -8 -18 -9 -25 -2 -15 15 9 61 35 66 23 4 30 3 96
-13z m-259 -85 c35 -18 36 -19 37 -78 0 -44 5 -64 16 -73 21 -15 20 -52 -2
-86 -14 -22 -21 -25 -30 -16 -7 7 -12 22 -12 35 0 18 -5 22 -22 20 -18 -2 -23
3 -21 21 2 14 -3 22 -13 22 -12 0 -14 7 -9 30 4 19 3 30 -4 30 -6 0 -11 7 -11
15 0 8 9 15 20 15 23 0 23 1 11 52 -5 21 -6 37 -2 35 3 -2 22 -11 42 -22z
m547 -62 c4 -5 15 -13 25 -16 11 -4 21 -16 24 -26 3 -11 11 -22 19 -25 22 -8
16 -30 -12 -43 -20 -9 -26 -9 -31 3 -3 8 -11 14 -19 14 -8 0 -14 7 -14 16 0
11 -6 14 -22 8 -13 -4 -26 -11 -30 -17 -3 -6 -26 -11 -50 -11 -37 -1 -43 2
-46 21 -3 17 3 24 21 29 15 3 28 15 31 29 3 13 14 26 24 28 27 7 73 1 80 -10z
m210 -163 c-3 -60 -7 -73 -33 -100 -34 -35 -65 -40 -65 -9 0 15 -5 20 -20 17
-12 -2 -20 -7 -20 -13 2 -14 -34 -24 -42 -11 -5 6 -8 2 -8 -11 0 -14 6 -23 16
-23 8 0 12 -4 9 -10 -3 -5 -17 -10 -31 -10 -34 0 -31 32 9 100 26 43 45 62 90
86 31 16 63 36 69 42 24 24 30 11 26 -58z m-898 -105 c-7 -9 -10 -18 -6 -22 3
-3 6 -2 6 4 0 6 9 9 20 6 11 -3 20 -11 20 -18 0 -8 7 -21 16 -30 15 -15 14
-19 -16 -50 -19 -19 -32 -36 -29 -38 2 -2 17 -9 33 -15 23 -11 31 -10 45 1 45
40 78 24 64 -31 -6 -27 -6 -27 15 -9 17 15 19 24 11 44 -13 34 -12 36 11 30
11 -3 18 -1 14 4 -3 5 -11 9 -18 9 -14 0 -32 67 -22 78 3 3 6 -4 6 -16 0 -15
6 -22 20 -22 11 0 20 -7 20 -15 0 -8 9 -19 19 -24 16 -9 20 -7 25 14 4 14 13
25 20 25 21 0 25 -33 6 -47 -13 -11 -13 -14 2 -29 16 -16 18 -16 24 -1 3 9 10
17 15 17 12 0 11 -57 -1 -65 -5 -3 -10 -2 -10 3 0 5 -12 10 -26 10 -17 -1 -24
-5 -20 -14 3 -8 1 -14 -4 -14 -6 0 -10 -5 -10 -12 0 -9 3 -9 12 0 18 18 51 15
44 -3 -7 -18 5 -20 22 -3 13 13 16 0 4 -19 -8 -13 -55 -33 -77 -33 -8 0 -11 7
-8 20 7 26 -3 25 -55 -5 -45 -26 -62 -25 -62 2 0 12 -6 11 -37 -7 -56 -33 -64
0 -15 61 12 15 10 17 -11 15 -18 -1 -28 -10 -36 -32 -7 -20 -24 -38 -45 -48
-47 -22 -59 -21 -46 4 6 11 17 20 24 20 22 0 38 27 31 51 -5 15 -10 18 -15 10
-4 -7 -25 -15 -46 -18 -33 -4 -44 0 -73 25 -46 39 -38 66 16 57 21 -4 46 -9
56 -12 13 -3 17 2 17 22 0 24 3 26 25 21 27 -7 71 26 60 44 -11 17 -43 11 -50
-9 -5 -17 -43 -36 -53 -26 -3 2 3 20 12 39 9 19 16 42 16 51 0 12 6 16 20 12
11 -3 20 0 20 6 0 6 3 7 6 4 4 -4 1 -13 -6 -22z"/>
<path d="M1690 4141 c-30 -10 -66 -22 -80 -28 -14 -6 -34 -14 -44 -17 -10 -4
-16 -9 -13 -12 10 -10 220 -15 266 -7 l44 8 -30 34 c-37 40 -67 44 -143 22z"/>
<path d="M1600 3944 c-105 -28 -229 -99 -236 -137 -2 -7 -6 -22 -9 -33 -5 -17
-1 -23 21 -28 24 -6 33 -1 66 36 l38 43 20 -27 c31 -41 84 -70 113 -63 55 14
84 74 64 133 -8 20 -5 22 23 22 45 0 118 -20 131 -36 13 -16 75 -19 84 -4 11
17 -14 48 -65 79 -44 27 -59 31 -123 30 -39 0 -97 -7 -127 -15z"/>
<path d="M590 2669 c0 -54 33 -134 72 -176 24 -25 40 -30 32 -10 -2 7 13 31
35 55 34 37 37 43 23 52 -14 7 -11 9 14 10 19 0 34 6 38 15 5 14 -5 19 -31 16
-7 -1 -14 4 -15 11 0 7 -2 18 -3 23 -2 6 -3 15 -4 20 -1 6 -6 3 -11 -5 -5 -8
-7 -25 -3 -38 5 -21 3 -23 -13 -14 -11 5 -36 17 -56 26 -25 10 -36 20 -32 30
5 12 -22 36 -40 36 -3 0 -6 -23 -6 -51z"/>
</g>
</svg>
